<svg width="19" height="19" viewBox="0 0 19 19" fill="none" xmlns="http://www.w3.org/2000/svg">
<path d="M11.9146 3.95829C12.6878 4.10916 13.3985 4.48733 13.9555 5.04441C14.5126 5.60149 14.8908 6.31213 15.0417 7.08538M11.9146 0.791626C13.5211 0.970096 15.0192 1.68951 16.1629 2.83176C17.3065 3.974 18.0278 5.47118 18.2083 7.07746M17.4167 13.395V15.77C17.4176 15.9904 17.3724 16.2087 17.2841 16.4107C17.1957 16.6127 17.0662 16.7941 16.9037 16.9431C16.7413 17.0922 16.5495 17.2056 16.3406 17.2763C16.1317 17.3469 15.9104 17.3731 15.6908 17.3533C13.2547 17.0886 10.9147 16.2562 8.85875 14.9229C6.94595 13.7074 5.32422 12.0857 4.10875 10.1729C2.77081 8.10758 1.93819 5.75616 1.67833 3.30913C1.65855 3.0902 1.68457 2.86956 1.75473 2.66125C1.82489 2.45293 1.93766 2.2615 2.08585 2.09916C2.23405 1.93681 2.41443 1.8071 2.6155 1.71829C2.81657 1.62947 3.03393 1.5835 3.25375 1.58329H5.62875C6.01295 1.57951 6.38542 1.71556 6.67673 1.96609C6.96804 2.21662 7.15831 2.56452 7.21208 2.94496C7.31232 3.70501 7.49823 4.45129 7.76625 5.16954C7.87276 5.4529 7.89581 5.76085 7.83267 6.05691C7.76953 6.35296 7.62285 6.62471 7.41 6.83996L6.40458 7.84538C7.53156 9.82735 9.17261 11.4684 11.1546 12.5954L12.16 11.59C12.3752 11.3771 12.647 11.2304 12.9431 11.1673C13.2391 11.1041 13.5471 11.1272 13.8304 11.2337C14.5487 11.5017 15.2949 11.6876 16.055 11.7879C16.4396 11.8421 16.7908 12.0358 17.0418 12.3321C17.2929 12.6285 17.4263 13.0067 17.4167 13.395Z" stroke="white" stroke-linecap="round" stroke-linejoin="round"/>
</svg>
